# xmcd
#
# Track frame offsets: 
#        150
#        18116
#        30650
#        48230
#        64105
#        81003
#
# Disc length: 1308 seconds
#
# Revision: 0
# Processed by: cddbd v1.5.2PL0 Copyright (c) Steve Scherf et al.
# Submitted via: ExactAudioCopy v0.95b4
#
DISCID=3c051a06
DTITLE=Natasha Bouchard - Live in the Lounge Room
DYEAR=2007
DGENRE=Acoustic
TTITLE0=anything once
TTITLE1=love like snow
TTITLE2=here for you
TTITLE3=love this town
TTITLE4=need you here
TTITLE5=nothing to show
EXTD=
EXTT0=
EXTT1=
EXTT2=
EXTT3=
EXTT4=
EXTT5=
PLAYORDER=
